{"title":"Scusa.Mi.Piace.iTALiAN.MD.CAM.XviD-BmA.avi","uid":8355351,"size":1279266746,"categoryP":"video","categoryS":"movies","magnet":"?xt=urn:btih:aa116bf65abaf700c200bab894ff9b7d6bc3025d&amp;dn=Scusa.Mi.Piace.iTALiAN.MD.CAM.XviD-BmA.avi&amp;tr=udp%3A%2F%2Ftracker.openbittorrent.com%3A80&amp;tr=udp%3A%2F%2Fopen.demonii.com%3A1337&amp;tr=udp%3A%2F%2Ftracker.coppersurfer.tk%3A6969&amp;tr=udp%3A%2F%2Fexodus.desync.com%3A6969","seeders":0,"leechers":0,"uploader":"wareeez","files":-1,"time":1365477879,"description":"\nGeneral\nComplete name : Scusa.Mi.Piace.iTALiAN.MD.CAM.XviD-BmA.avi\nFormat : AVI\nFormat/Info : Audio Video Interleave\nFile size : 1.20GiB\nDuration : 1h 57mn\nOverall bit rate : 1 672 Kbps\nWriting library : VirtualDub build 32842/release\n\nVideo\nID : 0\nFormat : MPEG-4 Visual\nFormat profile : Advanced Simple@L5\nFormat settings, BVOP : 2\nFormat settings, QPel : No\nFormat settings, GMC : No warppoints\nFormat settings, Matrix : Custom\nCodec ID : XVID\nCodec ID/Hint : XviD\nDuration : 1h 57mn\nBit rate : 1 532 Kbps\nWidth : 640 pixels\nHeight : 272 pixels\nDisplay aspect ratio : 2.35:1\nFrame rate : 25.000 fps\nOriginal frame rate : 23.976 fps\nColor space : YUV\nChroma subsampling : 4:2:0\nBit depth : 8 bits\nScan type : Progressive\nCompression mode : Lossy\nBits/(Pixel*Frame) : 0.352\nStream size : 1.25 GiB (92%)\nWriting library : XviD 1.2.1 (UTC 2008-12-04)\n\nAudio\nID : 1\nFormat : MPEG Audio\nFormat version : Version 1\nFormat profile : Layer 3\nMode : Joint stereo\nMode extension : MS Stereo\nCodec ID : 55\nCodec ID/Hint : MP3\nDuration : 1h 56mn\nBit rate mode : Constant\nBit rate : 128 Kbps\nChannel(s) : 2 channels\nSampling rate : 48.0 KHz\nCompression mode : Lossy\nDelay relative to video : 1s 800ms\nStream size : 107 MiB (8%)\nAlignment : Split accross interleaves\nInterleave, duration : 24 ms (0.60 video frame)\nInterleave, preload duration : 1512 ms\nWriting library : LAME3.99r\nEncoding settings : -m j -V 4 -q 3 -lowpass 17 -b 128","torrent":{"xt":"urn:btih:aa116bf65abaf700c200bab894ff9b7d6bc3025d","amp;dn":"Scusa.Mi.Piace.iTALiAN.MD.CAM.XviD-BmA.avi","amp;tr":["udp%3A%2F%2Ftracker.openbittorrent.com%3A80","udp%3A%2F%2Fopen.demonii.com%3A1337","udp%3A%2F%2Ftracker.coppersurfer.tk%3A6969","udp%3A%2F%2Fexodus.desync.com%3A6969"],"infoHash":"aa116bf65abaf700c200bab894ff9b7d6bc3025d","infoHashBuffer":{"type":"Buffer","data":[170,17,107,246,90,186,247,0,194,0,186,184,148,255,155,125,107,195,2,93]},"announce":[],"urlList":[]}}